<svg width="221" height="220" viewBox="0 0 221 220" fill="none" xmlns="http://www.w3.org/2000/svg">
<g clip-path="url(#clip0_8811_17233)">
<path d="M218.387 84.6823C208.526 34.6877 158.738 4.47036 116.951 0.617342C82.3315 -2.57612 40.3693 6.13365 20.9776 38.1786C9.09586 57.8131 23.7528 66.4593 15.5341 109.917C8.41948 147.53 -4.54834 161.082 3.3448 180.252C9.79747 195.925 24.4821 202.794 34.122 207.532C72.1185 226.207 142.101 224.723 183.656 190.657C193.38 182.684 229.543 141.236 218.388 84.6823H218.387Z" fill="192116"/>
<path d="M73.7356 47.1067C73.0977 48.8648 72.6111 50.6504 72.2855 52.4504L63.8121 54.3487L63.8037 62.2958L72.2855 64.2157C72.6123 66.0325 73.0905 67.8205 73.714 69.5593L67.3166 75.4414L71.2896 82.3272L79.5852 79.7597C80.7674 81.1579 82.0793 82.4651 83.5101 83.6727L80.9175 91.9567L87.8075 95.9381L93.7123 89.5667C95.4736 90.2035 97.2625 90.688 99.0657 91.0142L100.968 99.4733L108.929 99.4817L110.853 91.0154C112.673 90.6892 114.464 90.2119 116.205 89.5895L122.098 95.9752L128.996 92.0095L126.424 83.729C127.825 82.5502 129.134 81.2395 130.344 79.8112L138.643 82.3991L142.632 75.5217L136.249 69.6277C136.887 67.8696 137.373 66.084 137.699 64.284L146.172 62.3857L146.181 54.4386L137.699 52.5187C137.372 50.7019 136.894 48.9139 136.27 47.1763L142.668 41.2942L138.695 34.4072L130.399 36.9747C129.217 35.5764 127.905 34.2693 126.474 33.0617L129.067 24.7777L122.177 20.7963L116.272 27.1677C114.511 26.5309 112.722 26.0464 110.919 25.7202L109.017 17.2623L101.055 17.2539L99.1318 25.7202C97.3105 26.0464 95.5204 26.5237 93.7796 27.1461L87.8868 20.7604L80.9884 24.7261L83.5606 33.0066C82.1598 34.1866 80.8503 35.4961 79.6405 36.9243L71.3412 34.3365L67.3526 41.2139L73.7356 47.1079V47.1067ZM87.2537 48.1201C92.9242 38.3418 105.462 35.002 115.258 40.6622C125.054 46.3213 128.4 58.8373 122.73 68.6155C117.059 78.3938 104.521 81.7336 94.7251 76.0733C84.929 70.4143 81.5831 57.8983 87.2537 48.1201Z" fill="white"/>
<path d="M145.506 210.317H101.108L78.1943 170.282V205.25C78.1943 210.718 82.1902 215.093 87.033 215.093H145.506C146.449 215.093 147.295 214.434 147.295 213.493V211.927C147.295 210.985 146.449 210.317 145.506 210.317Z" fill="#B0D4C6"/>
<path d="M84.7051 182.859V202.689C84.7051 206.709 87.8972 209.919 91.9242 209.919H130.153V182.859H84.7051Z" fill="white"/>
<path d="M130.552 210.318H91.9247C87.6525 210.318 84.3066 206.967 84.3066 202.69V182.463H130.552V210.318ZM85.1044 183.258V202.69C85.1044 206.521 88.1006 209.522 91.9247 209.522H129.754V183.258H85.1044Z" fill="#404245"/>
<path d="M204.998 184.689L18.6018 185.095C16.9727 185.095 15.5971 183.884 15.3892 182.268L0.541244 66.445C0.179625 63.6268 2.23761 60.9658 5.0789 60.9658L189.064 61.1325L204.998 184.689Z" fill="#B0D4C6"/>
<path d="M208.818 184.541H26.1448C24.5169 184.541 23.1414 183.327 22.9323 181.706L8.17923 66.9249C7.76955 63.7362 10.2432 60.9121 13.4461 60.9121H193.763C195.391 60.9121 196.766 62.1257 196.975 63.747L212.031 180.874C212.281 182.819 210.772 184.541 208.819 184.541H208.818Z" fill="white"/>
<path d="M208.817 184.94H26.1444C24.3207 184.94 22.7709 183.572 22.5378 181.757L7.78351 66.9759C7.57206 65.3366 8.07785 63.6853 9.16991 62.4478C10.2524 61.2198 11.8106 60.5146 13.4457 60.5146H193.763C195.586 60.5146 197.136 61.8829 197.369 63.6973L212.425 180.824C212.559 181.869 212.238 182.919 211.542 183.708C210.852 184.491 209.859 184.94 208.817 184.94ZM13.4457 61.3109C12.04 61.3109 10.7005 61.9165 9.76821 62.9742C8.82752 64.0415 8.39261 65.4625 8.57402 66.8764L23.3283 181.658C23.5109 183.076 24.7207 184.145 26.1444 184.145H208.817C209.629 184.145 210.404 183.795 210.944 183.183C211.488 182.565 211.739 181.743 211.634 180.926L196.579 63.7993C196.396 62.3806 195.186 61.3121 193.763 61.3121H13.4457V61.3109Z" fill="#404245"/>
<path d="M22.5413 49.9297H182.527C186.058 49.9297 189.272 52.797 189.703 56.3346L203.199 166.793C203.637 170.368 201.111 173.266 197.56 173.266H36.6757C33.1244 173.266 29.9143 170.368 29.5058 166.793L16.8804 56.3346C16.4755 52.797 19.0104 49.9297 22.5425 49.9297H22.5413Z" fill="#D9EAE4"/>
<path d="M190.21 60.2466L189.909 56.2784C189.48 52.7732 186.154 49.9814 182.623 49.9814H22.6376C19.1067 49.9814 16.5345 52.7732 16.9358 56.2784L17.3106 61.164L190.211 60.2466H190.21Z" fill="#B0D4C6"/>
<path d="M27.0057 56.4425C27.1366 57.5817 26.3173 58.5051 25.176 58.5051C24.0346 58.5051 23.0038 57.5817 22.8741 56.4425C22.7431 55.3033 23.5625 54.3799 24.7038 54.3799C25.8451 54.3799 26.8759 55.3033 27.0057 56.4425Z" fill="#D9EAE4"/>
<path d="M33.6014 56.3048C33.7323 57.444 32.9142 58.3674 31.7729 58.3674C30.6315 58.3674 29.6008 57.444 29.4698 56.3048C29.3389 55.1656 30.1582 54.2422 31.2983 54.2422C32.4384 54.2422 33.4704 55.1656 33.6014 56.3048Z" fill="#D9EAE4"/>
<path d="M40.7938 56.5792C40.9247 57.7185 40.1066 58.6418 38.9653 58.6418C37.8239 58.6418 36.7932 57.7185 36.6622 56.5792C36.5312 55.44 37.3494 54.5166 38.4907 54.5166C39.632 54.5166 40.6628 55.44 40.7938 56.5792Z" fill="#D9EAE4"/>
<path d="M78.4407 122.116H85.6971L86.6138 129.948H79.355L80.8759 142.973H71.1242L69.6093 129.948H44.3837L43.4189 124.003L64.0108 84.5605H74.0556L78.4407 122.116ZM53.4241 122.116H68.6986L65.8621 97.7325L65.2903 99.0145L53.4229 122.116H53.4241Z" fill="white"/>
<path d="M129.748 118.342C130.749 126.747 129.933 133.089 127.3 137.363C124.665 141.639 120.137 143.777 113.716 143.777C107.294 143.777 102.401 141.692 98.7138 137.523C95.0279 133.356 92.666 127.19 91.628 119.025L90.441 108.914C89.4559 100.523 90.286 94.2336 92.9303 90.0424C95.5722 85.8536 100.109 83.7598 106.538 83.7598C112.968 83.7598 117.913 85.8008 121.534 89.8829C125.156 93.9673 127.493 100.082 128.544 108.233L129.748 118.342ZM118.713 107.431C118.063 101.953 116.839 97.9391 115.042 95.3884C113.245 92.8389 110.718 91.5641 107.462 91.5641C104.207 91.5641 102.093 92.7729 100.884 95.1881C99.6737 97.6057 99.3301 101.378 99.8551 106.509L101.415 119.746C102.058 125.206 103.3 129.278 105.139 131.956C106.979 134.636 109.53 135.975 112.793 135.975C116.056 135.975 118.089 134.736 119.292 132.258C120.496 129.78 120.825 125.903 120.279 120.63L118.712 107.431H118.713Z" fill="white"/>
<path d="M171.772 122.116H179.029L179.979 129.948H172.72L174.296 142.973H164.545L162.974 129.948H137.749L136.759 124.003L157.184 84.5605H167.228L171.773 122.116H171.772ZM146.756 122.116H162.03L159.09 97.7325L158.524 99.0145L146.756 122.116Z" fill="white"/>
<path d="M82.7466 141.2H72.9949C72.7919 141.2 72.6225 141.049 72.5985 140.848L71.1244 128.175H46.2532C46.0573 128.175 45.8903 128.033 45.8603 127.84L44.8956 121.896C44.8824 121.811 44.8956 121.724 44.9352 121.647L65.5271 82.2047C65.5956 82.0728 65.7313 81.9912 65.8803 81.9912H75.9251C76.1282 81.9912 76.2976 82.1423 76.3216 82.3426L80.6658 119.546H87.5678C87.7696 119.546 87.9402 119.698 87.9643 119.898L88.8809 127.73C88.8941 127.843 88.8581 127.955 88.7824 128.04C88.7067 128.126 88.5986 128.174 88.4845 128.174H81.6726L83.1419 140.754C83.1551 140.867 83.1191 140.98 83.0434 141.065C82.9677 141.15 82.8596 141.198 82.7454 141.198L82.7466 141.2ZM73.3505 140.404H82.2997L80.8304 127.823C80.8172 127.711 80.8532 127.598 80.9289 127.513C81.0046 127.428 81.1127 127.38 81.2269 127.38H88.0375L87.2134 120.344H80.3114C80.1084 120.344 79.939 120.193 79.9149 119.993L75.5707 82.7887H66.1218L45.7029 121.901L46.5931 127.381H71.48C71.683 127.381 71.8524 127.532 71.8764 127.733L73.3505 140.407V140.404ZM70.5693 120.343H55.2948C55.1555 120.343 55.0269 120.271 54.9548 120.152C54.8827 120.033 54.8767 119.886 54.9404 119.764L66.8078 96.6622L67.37 95.3994C67.4433 95.2352 67.6163 95.1404 67.7941 95.168C67.9719 95.1944 68.1089 95.3371 68.1305 95.5158L70.967 119.899C70.9802 120.012 70.9441 120.124 70.8685 120.21C70.7928 120.295 70.6846 120.343 70.5705 120.343H70.5693ZM55.9472 119.546H70.1212L67.5046 97.0459L55.9472 119.546Z" fill="#007348"/>
<path d="M115.587 142.004C109.182 142.004 104.034 139.855 100.286 135.616C96.5638 131.409 94.1478 125.113 93.1026 116.904L91.9156 106.79C90.9245 98.3462 91.7822 91.9101 94.4626 87.6601C97.1705 83.367 101.863 81.1904 108.408 81.1904C114.953 81.1904 120.02 83.2962 123.702 87.4478C127.361 91.5743 129.752 97.8197 130.808 106.01L132.013 116.123C133.021 124.582 132.178 131.067 129.508 135.399C126.809 139.781 122.123 142.003 115.585 142.003L115.587 142.004ZM108.41 81.9867C102.155 81.9867 97.6907 84.0385 95.1377 88.0834C92.5559 92.1763 91.7378 98.4385 92.7073 106.696L93.8943 116.807C94.9179 124.851 97.269 131.004 100.883 135.088C104.474 139.149 109.42 141.208 115.585 141.208C121.751 141.208 126.284 139.114 128.83 134.983C131.403 130.807 132.207 124.493 131.222 116.218L130.018 106.109C128.982 98.0823 126.657 91.9808 123.106 87.9755C119.581 84.0014 114.636 81.9867 108.41 81.9867ZM114.664 134.203C111.277 134.203 108.591 132.793 106.681 130.011C104.813 127.292 103.537 123.125 102.889 117.623L101.33 104.385C100.799 99.1976 101.159 95.3158 102.398 92.8406C103.675 90.2899 106.009 88.9972 109.333 88.9972C112.658 88.9972 115.37 90.3403 117.239 92.9905C119.066 95.5844 120.325 99.6977 120.98 105.215L122.546 118.415C123.098 123.745 122.753 127.729 121.523 130.263C120.252 132.878 117.945 134.205 114.665 134.205L114.664 134.203ZM109.332 89.7911C106.293 89.7911 104.257 90.9051 103.11 93.1956C101.94 95.5328 101.607 99.2683 102.121 104.298L103.681 117.531C104.314 122.903 105.544 126.951 107.339 129.561C109.116 132.149 111.513 133.407 114.665 133.407C117.655 133.407 119.664 132.264 120.805 129.914C121.971 127.515 122.29 123.676 121.755 118.501L120.189 105.307C119.55 99.9219 118.338 95.931 116.587 93.4474C114.853 90.9879 112.48 89.7923 109.333 89.7923L109.332 89.7911Z" fill="#007348"/>
<path d="M176.167 141.2H166.417C166.215 141.2 166.046 141.049 166.021 140.85L164.493 128.175H139.621C139.426 128.175 139.259 128.034 139.228 127.843L138.237 121.898C138.222 121.813 138.237 121.727 138.277 121.65L158.701 82.2071C158.77 82.0752 158.907 81.9912 159.056 81.9912H169.101C169.302 81.9912 169.472 82.1411 169.496 82.3414L170.729 92.5262C170.755 92.7444 170.599 92.9423 170.38 92.9687C170.16 92.9939 169.963 92.8392 169.937 92.6209L168.746 82.7863H159.297L139.044 121.897L139.957 127.378H164.845C165.047 127.378 165.217 127.53 165.241 127.729L166.769 140.404H175.717L174.458 129.996C174.431 129.778 174.587 129.58 174.806 129.554C175.022 129.529 175.223 129.683 175.249 129.902L176.562 140.756C176.576 140.868 176.541 140.982 176.465 141.067C176.39 141.152 176.281 141.202 176.167 141.202V141.2ZM163.901 120.343H148.627C148.488 120.343 148.359 120.271 148.287 120.153C148.214 120.036 148.208 119.888 148.271 119.765L160.04 96.6634L160.596 95.4006C160.668 95.2364 160.842 95.1392 161.02 95.168C161.198 95.1944 161.336 95.3359 161.358 95.5134L163.184 110.66C163.21 110.879 163.054 111.077 162.835 111.103C162.616 111.132 162.419 110.973 162.392 110.755L160.739 97.0447L149.276 119.546H163.452L163.129 116.864C163.102 116.646 163.258 116.448 163.477 116.421C163.699 116.393 163.894 116.551 163.92 116.769L164.297 119.897C164.311 120.009 164.276 120.123 164.2 120.208C164.124 120.294 164.016 120.343 163.902 120.343H163.901Z" fill="#007348"/>
<path d="M169.494 173.663H36.7341C32.993 173.663 29.599 170.6 29.1689 166.837L16.5435 56.3787C16.3333 54.5415 16.8571 52.8147 18.0176 51.5171C19.1625 50.2364 20.7904 49.5312 22.6021 49.5312H182.589C186.31 49.5312 189.706 52.5616 190.161 56.2851L194.55 92.2047C194.576 92.423 194.422 92.6208 194.203 92.6484C193.984 92.6736 193.786 92.5201 193.758 92.3018L189.37 56.3823C188.962 53.0437 185.92 50.3275 182.589 50.3275H22.5997C21.0187 50.3275 19.6022 50.9379 18.6111 52.0472C17.6043 53.1732 17.1514 54.6794 17.3352 56.2887L29.9606 166.747C30.3463 170.121 33.3846 172.868 36.7341 172.868H169.495C169.715 172.868 169.894 173.046 169.894 173.266C169.894 173.485 169.715 173.664 169.495 173.664L169.494 173.663Z" fill="#007348"/>
<path d="M145.23 215.358H89.0922C88.8724 215.358 88.6934 215.179 88.6934 214.96C88.6934 214.74 88.8724 214.562 89.0922 214.562H145.23C145.941 214.562 146.498 213.98 146.498 213.239V211.673C146.498 210.926 145.929 210.318 145.23 210.318H128.958C128.738 210.318 128.559 210.139 128.559 209.92C128.559 209.7 128.738 209.521 128.958 209.521H145.23C146.369 209.521 147.296 210.487 147.296 211.673V213.239C147.296 214.407 146.369 215.358 145.23 215.358Z" fill="#404245"/>
<path d="M70.8845 211.113H22.5068L27.0853 202.119L31.0752 194.285L35.5335 185.532L39.5221 177.703L44.7098 167.525C45.0894 166.778 45.8571 166.311 46.6957 166.311C47.5342 166.311 48.3019 166.778 48.6816 167.524L53.8692 177.702L57.8578 185.53L62.3161 194.281L66.306 202.119L70.8845 211.113Z" fill="#B0D4C6"/>
<path d="M57.8572 185.646H35.5342L39.5216 177.687H53.8686L57.8572 185.646Z" fill="#007348"/>
<path d="M66.3056 202.093H27.085L31.076 194.399H62.3158L66.3056 202.093Z" fill="#007348"/>
<path d="M70.6451 211.644H22.2674C22.1293 211.644 22.0007 211.572 21.9274 211.455C21.8554 211.337 21.8481 211.19 21.9106 211.067L26.4891 202.006L30.4801 194.139L38.9271 177.532L44.1147 167.349C44.5653 166.464 45.4615 165.915 46.4562 165.915C47.451 165.915 48.3484 166.463 48.7966 167.346L62.4311 194.101L71.0007 211.067C71.0631 211.191 71.0571 211.337 70.9839 211.455C70.9118 211.572 70.7832 211.644 70.6439 211.644H70.6451ZM22.915 210.848H69.9975L61.7199 194.46L48.0865 167.705C47.7742 167.091 47.1494 166.71 46.4562 166.71C45.763 166.71 45.1395 167.093 44.826 167.709L35.6497 185.728L31.1914 194.498L27.2003 202.363L22.9138 210.847L22.915 210.848Z" fill="#404245"/>
<path d="M19.4029 209.663H73.749C74.6429 209.663 75.3697 210.387 75.3697 211.281V216.394C75.3697 217.286 74.6441 218.012 73.749 218.012H19.4029C18.5091 218.012 17.7822 217.288 17.7822 216.394V211.281C17.7822 210.389 18.5079 209.663 19.4029 209.663Z" fill="#007348"/>
<path d="M73.7495 218.409H19.4033C18.2896 218.409 17.3838 217.504 17.3838 216.393V211.28C17.3838 210.169 18.2896 209.265 19.4033 209.265H73.7495C74.8632 209.265 75.769 210.169 75.769 211.28V216.393C75.769 217.504 74.8632 218.409 73.7495 218.409ZM19.4033 210.061C18.7293 210.061 18.1815 210.608 18.1815 211.28V216.393C18.1815 217.065 18.7293 217.612 19.4033 217.612H73.7495C74.4235 217.612 74.9713 217.065 74.9713 216.393V211.28C74.9713 210.608 74.4235 210.061 73.7495 210.061H19.4033Z" fill="#404245"/>
<path d="M205.605 113.729C211.894 115.495 219.991 122.291 219.991 134.621C219.991 143.503 206.883 151.027 206.883 151.027L204.722 145.73C204.722 145.73 211.947 140.39 211.601 134.155C211.324 129.156 203.248 127.603 203.248 127.603L205.606 113.729H205.605Z" fill="#007348"/>
<path d="M202.952 209.759H198.432V215.056H202.952V209.759Z" fill="#007348"/>
<path d="M189.7 208.925L185.3 209.962L186.519 215.117L190.919 214.081L189.7 208.925Z" fill="#007348"/>
<path d="M206.686 144.039C206.686 144.039 208.037 154.692 207 158.828C205.964 162.964 203.541 201.184 203.541 211.525H197.449L194.698 162.676L186.195 180.4C185.578 181.838 185.422 183.432 185.746 184.962L190.767 211.525L185.067 211.917L175.539 182.75C175.113 181.304 175.081 179.77 175.448 178.309L183.175 147.454L206.686 144.039Z" fill="#404245"/>
<path d="M194.992 161.995C194.904 161.995 194.817 161.966 194.743 161.907C194.571 161.77 194.544 161.52 194.681 161.348L197.825 157.425C197.962 157.253 198.213 157.226 198.385 157.362C198.556 157.5 198.584 157.75 198.447 157.921L195.303 161.845C195.225 161.943 195.108 161.994 194.992 161.994V161.995Z" fill="white"/>
<path d="M203.246 213.879H197.94L197.153 217.877C197.001 218.648 197.559 219.372 198.306 219.372H202.88C203.627 219.372 204.185 218.649 204.033 217.877L203.246 213.879Z" fill="white"/>
<path d="M202.88 219.77H198.306C197.846 219.77 197.409 219.561 197.11 219.198C196.79 218.811 196.663 218.301 196.763 217.801L197.55 213.803C197.586 213.616 197.75 213.481 197.941 213.481H203.248C203.439 213.481 203.602 213.616 203.639 213.803L204.426 217.801C204.525 218.301 204.398 218.811 204.078 219.199C203.779 219.563 203.343 219.771 202.881 219.771L202.88 219.77ZM198.268 214.278L197.544 217.954C197.491 218.221 197.557 218.489 197.725 218.693C197.875 218.874 198.081 218.975 198.305 218.975H202.879C203.104 218.975 203.31 218.875 203.459 218.693C203.627 218.489 203.694 218.221 203.641 217.954L202.916 214.278H198.266H198.268Z" fill="#404245"/>
<path d="M203.246 218.495H197.743C197.523 218.495 197.344 218.317 197.344 218.097C197.344 217.878 197.523 217.699 197.743 217.699H203.246C203.466 217.699 203.645 217.878 203.645 218.097C203.645 218.317 203.466 218.495 203.246 218.495Z" fill="#404245"/>
<path d="M191.062 212.702L192.515 217.516C192.768 218.353 192.257 219.239 191.505 219.264L181.522 219.601C180.905 219.622 180.659 218.667 181.18 218.275C182.804 217.057 184.966 215.365 185.559 214.561C186.935 212.701 188.31 214.328 188.31 214.328C188.31 214.328 189.293 212.701 191.062 212.701V212.702Z" fill="white"/>
<path d="M181.503 220C181.086 220 180.722 219.728 180.569 219.297C180.391 218.796 180.54 218.258 180.939 217.959C183.274 216.207 184.801 214.918 185.238 214.327C185.739 213.649 186.312 213.294 186.938 213.274C187.495 213.247 187.953 213.511 188.251 213.738C188.693 213.202 189.647 212.304 191.061 212.304C191.236 212.304 191.391 212.419 191.443 212.587L192.897 217.402C193.067 217.965 192.97 218.577 192.638 219.037C192.363 219.42 191.955 219.648 191.518 219.662L181.535 219.999C181.524 219.999 181.514 219.999 181.503 219.999V220ZM186.993 214.069C186.982 214.069 186.97 214.069 186.96 214.069C186.591 214.082 186.227 214.328 185.879 214.798C185.384 215.468 183.883 216.746 181.419 218.593C181.282 218.697 181.272 218.892 181.321 219.031C181.339 219.084 181.393 219.204 181.504 219.204H181.509L191.491 218.867C191.749 218.859 191.915 218.68 191.991 218.573C192.176 218.315 192.231 217.954 192.133 217.631L190.77 213.117C189.433 213.28 188.659 214.522 188.651 214.535C188.584 214.645 188.468 214.715 188.341 214.726C188.213 214.736 188.089 214.684 188.006 214.586C188.002 214.582 187.553 214.068 186.993 214.068V214.069Z" fill="#404245"/>
<path d="M182.609 218.495C182.396 218.495 182.22 218.328 182.211 218.114C182.202 217.895 182.372 217.709 182.592 217.699L191.633 217.307C191.859 217.294 192.039 217.468 192.048 217.687C192.058 217.907 191.887 218.093 191.667 218.102L182.627 218.495C182.627 218.495 182.615 218.495 182.609 218.495Z" fill="#404245"/>
<path d="M196.368 110.982L201.282 114.317L187.752 113.671L191.652 111.179L192.177 108.765C191.485 108.663 190.533 108.593 190.23 108.217C189.696 107.551 189.937 105.25 189.937 105.25L189.351 104.789C189.289 104.758 189.243 104.702 189.224 104.635C189.204 104.567 189.215 104.495 189.252 104.437C189.75 103.645 190.22 103.389 190.441 102.582C190.658 101.786 190.562 101.906 191.42 100.193L196.565 100.186L196.594 104.035C196.594 104.035 197.384 103.525 197.884 104.214C198.249 104.714 197.444 106.385 196.79 106.387L196.37 110.982H196.368Z" fill="white"/>
<path d="M201.282 114.715C201.276 114.715 201.268 114.715 201.262 114.715L187.732 114.069C187.559 114.06 187.41 113.942 187.366 113.774C187.321 113.606 187.39 113.43 187.537 113.336L191.296 110.933L191.695 109.101C190.979 109.003 190.259 108.889 189.918 108.466C189.384 107.804 189.462 106.111 189.519 105.429L189.127 105.122C188.987 105.036 188.883 104.901 188.839 104.741C188.79 104.568 188.817 104.379 188.915 104.225C189.112 103.912 189.304 103.678 189.473 103.47C189.743 103.142 189.939 102.903 190.055 102.476C190.083 102.369 190.106 102.281 190.128 102.2C190.275 101.638 190.325 101.486 191.063 100.013C191.13 99.8787 191.268 99.7936 191.418 99.7924L196.564 99.7852C196.782 99.7852 196.961 99.9614 196.963 100.18L196.988 103.471C197.4 103.41 197.869 103.513 198.206 103.978C198.603 104.524 198.19 105.435 198.055 105.702C197.923 105.96 197.608 106.491 197.161 106.697L196.787 110.783L201.506 113.986C201.654 114.087 201.717 114.271 201.66 114.442C201.606 114.605 201.452 114.714 201.282 114.714V114.715ZM189.02 113.334L199.888 113.853L196.145 111.312C196.024 111.23 195.958 111.091 195.972 110.946L196.392 106.351C196.411 106.146 196.583 105.99 196.788 105.989C196.844 105.985 197.068 105.844 197.304 105.419C197.563 104.949 197.608 104.535 197.559 104.445C197.289 104.076 196.858 104.339 196.81 104.37C196.688 104.449 196.533 104.455 196.404 104.385C196.275 104.317 196.196 104.183 196.195 104.038L196.169 100.584L191.666 100.59C191.049 101.826 191.019 101.941 190.899 102.402C190.878 102.485 190.854 102.577 190.824 102.686C190.663 103.277 190.384 103.617 190.089 103.975C189.951 104.143 189.81 104.316 189.665 104.53L190.182 104.936C190.29 105.021 190.347 105.154 190.332 105.291C190.24 106.179 190.242 107.598 190.54 107.967C190.699 108.164 191.457 108.266 191.91 108.326C192.021 108.341 192.131 108.356 192.235 108.371C192.344 108.387 192.442 108.448 192.504 108.539C192.567 108.629 192.59 108.742 192.566 108.85L192.041 111.263C192.018 111.366 191.955 111.456 191.866 111.513L189.02 113.332V113.334Z" fill="#404245"/>
<path d="M197.041 108.109C196.004 108.453 194.982 107.643 194.798 107.498C194.077 106.927 193.488 105.912 193.778 105.463C193.936 105.217 194.221 105.352 194.593 105.057C195.141 104.623 195.298 103.681 195.001 103.428C194.758 103.221 194.378 103.618 193.981 103.428C193.497 103.197 193.744 102.454 193.369 101.8C192.757 100.731 191.328 101.375 190.23 100.238C189.513 99.4961 189.202 98.2585 189.611 97.5594C189.731 97.3543 189.914 97.1744 190.175 97.0305C191.902 96.0807 192.161 97.3807 193.843 97.3951C197.305 97.425 199.003 98.1158 199.629 99.5476C200.054 100.519 199.535 102.067 199.283 102.818C199.198 103.068 199.023 103.541 198.874 104.242C198.712 105.011 198.762 105.209 198.67 105.667C198.605 105.989 198.261 107.703 197.038 108.11L197.041 108.109Z" fill="#404245"/>
<path d="M189.288 102.079C189.288 102.079 190.816 102.643 191.149 101.88C191.482 101.118 190.95 100.488 191.78 99.8908C192.61 99.2936 194.603 98.6641 193.873 97.7683C193.142 96.8725 190.916 96.5079 190.285 97.5692C189.654 98.6305 189.188 100.454 188.757 100.487C188.326 100.52 188.486 101.892 189.288 102.078V102.079Z" fill="white"/>
<path d="M190.34 102.679C189.823 102.679 189.316 102.512 189.172 102.461C188.39 102.262 188.086 101.367 188.128 100.818C188.163 100.358 188.41 100.151 188.653 100.101C188.796 99.9471 189.05 99.3295 189.221 98.9146C189.433 98.4013 189.672 97.8209 189.942 97.3652C190.23 96.8795 190.785 96.5833 191.503 96.5306C192.524 96.4538 193.653 96.8699 194.182 97.5163C194.442 97.8353 194.451 98.1327 194.412 98.327C194.286 98.9577 193.514 99.3727 192.766 99.7744C192.477 99.9303 192.204 100.077 192.013 100.213C191.672 100.459 191.673 100.655 191.674 101.044C191.676 101.321 191.677 101.666 191.515 102.038C191.297 102.537 190.814 102.678 190.34 102.678V102.679ZM189.425 101.706C189.906 101.881 190.666 101.988 190.782 101.722C190.878 101.502 190.877 101.291 190.875 101.048C190.873 100.604 190.871 100.053 191.546 99.5681C191.779 99.4014 192.074 99.242 192.387 99.0741C192.831 98.8354 193.576 98.4349 193.629 98.1723C193.636 98.1351 193.615 98.0835 193.562 98.02C193.204 97.5811 192.307 97.2705 191.559 97.3244C191.298 97.3436 190.83 97.4276 190.626 97.7729C190.384 98.1783 190.157 98.7311 189.956 99.218C189.578 100.137 189.336 100.725 188.922 100.858C188.911 100.959 188.924 101.157 189.024 101.362C189.076 101.466 189.189 101.65 189.376 101.693C189.393 101.697 189.409 101.702 189.424 101.708L189.425 101.706Z" fill="#404245"/>
<path d="M182.611 112.944C182.611 112.944 194.404 109.609 205.605 113.728C206.467 118.685 207.06 122.966 207.472 126.357C208.199 132.325 207.746 130.419 208.652 139.133C209.214 144.548 209.364 145.045 208.849 145.999C206.25 150.811 195.776 150.549 191.75 149.531C191.464 149.459 190.282 149.147 188.349 148.66C186.134 148.103 184.317 147.663 183.102 147.372C182.445 147.075 181.558 146.549 180.941 145.607C179.556 143.497 180.482 140.762 180.941 138.937C182.121 134.25 180.571 134.148 180.941 125.597C181.071 122.608 181.448 118.264 182.612 112.944H182.611Z" fill="#007348"/>
<path d="M204.181 149.669C203.986 149.669 203.815 149.527 203.787 149.329C203.754 149.112 203.906 148.909 204.123 148.877C204.337 148.845 209.348 148.049 208.685 143.309C208.655 143.092 208.806 142.89 209.025 142.86C209.241 142.83 209.444 142.981 209.474 143.2C210.248 148.729 204.297 149.656 204.237 149.666C204.218 149.668 204.199 149.669 204.179 149.669H204.181Z" fill="white"/>
<path d="M190.524 145.091C190.423 145.091 190.322 145.053 190.244 144.978C185.543 140.352 184.573 133.354 184.535 133.059C184.506 132.84 184.66 132.641 184.878 132.613C185.097 132.585 185.296 132.737 185.325 132.956C185.335 133.025 186.302 139.983 190.804 144.412C190.96 144.566 190.962 144.818 190.807 144.974C190.729 145.053 190.626 145.093 190.524 145.093V145.091Z" fill="white"/>
<path d="M178.425 106.63C178.432 106.421 178.584 106.245 178.789 106.204L190.439 102.582L189.429 100.186C189.429 100.186 173.654 95.185 166.254 101.563C158.853 107.941 173.73 123.697 182.129 127.346L189.819 111.937L178.758 107.081C178.556 107.026 178.418 106.84 178.425 106.631V106.63Z" fill="#007348"/>
<path d="M209.775 78.7751C216.04 72.5221 216.04 62.3841 209.775 56.1311C203.511 49.8782 193.354 49.8782 187.09 56.1312C180.825 62.3841 180.825 72.5221 187.09 78.7751C193.354 85.028 203.511 85.028 209.775 78.7751Z" fill="white"/>
<path d="M198.432 83.8636C189.368 83.8636 181.992 76.5029 181.992 67.4538C181.992 58.4046 189.366 51.0439 198.432 51.0439C207.498 51.0439 214.872 58.4046 214.872 67.4538C214.872 76.5029 207.498 83.8636 198.432 83.8636ZM198.432 51.8402C189.807 51.8402 182.79 58.8447 182.79 67.4538C182.79 76.0628 189.807 83.0673 198.432 83.0673C207.057 83.0673 214.074 76.0628 214.074 67.4538C214.074 58.8447 207.057 51.8402 198.432 51.8402Z" fill="#404245"/>
<path d="M205.579 74.5862C209.526 70.6467 209.526 64.2596 205.579 60.3201C201.632 56.3806 195.233 56.3806 191.287 60.3201C187.34 64.2596 187.34 70.6467 191.287 74.5862C195.233 78.5256 201.632 78.5256 205.579 74.5862Z" fill="#B0D4C6"/>
<path d="M194.086 72.0219C194.051 72.0219 194.015 72.0171 193.98 72.0075C193.767 71.95 193.642 71.7305 193.701 71.5183C194.293 69.3609 196.273 67.8535 198.517 67.8535C200.762 67.8535 202.549 69.2062 203.241 71.2197C203.312 71.4271 203.202 71.6538 202.994 71.7257C202.784 71.7965 202.559 71.6861 202.487 71.4787C201.905 69.7866 200.31 68.6498 198.517 68.6498C196.631 68.6498 194.967 69.9161 194.47 71.7293C194.422 71.9056 194.261 72.0219 194.086 72.0219Z" fill="white"/>
<path d="M195.122 65.7477C195.02 65.7477 194.918 65.7093 194.84 65.6314L192.569 63.3649C192.413 63.209 192.413 62.9572 192.569 62.8025C192.725 62.6466 192.978 62.6466 193.133 62.8025L195.403 65.0689C195.56 65.2248 195.56 65.4767 195.403 65.6314C195.325 65.7093 195.223 65.7477 195.121 65.7477H195.122Z" fill="white"/>
<path d="M195.122 65.7477C195.02 65.7477 194.918 65.7093 194.84 65.6314L192.569 63.3649C192.413 63.209 192.413 62.9572 192.569 62.8025C192.725 62.6466 192.978 62.6466 193.133 62.8025L195.403 65.0689C195.56 65.2248 195.56 65.4767 195.403 65.6314C195.325 65.7093 195.223 65.7477 195.121 65.7477H195.122Z" fill="white"/>
<path d="M192.852 65.7477C192.749 65.7477 192.647 65.7093 192.569 65.6314C192.413 65.4755 192.413 65.2236 192.569 65.0689L194.84 62.8025C194.996 62.6466 195.248 62.6466 195.403 62.8025C195.56 62.9584 195.56 63.2102 195.403 63.3649L193.133 65.6314C193.055 65.7093 192.953 65.7477 192.85 65.7477H192.852Z" fill="white"/>
<path d="M204.159 65.7477C204.057 65.7477 203.955 65.7093 203.877 65.6314L201.606 63.3649C201.45 63.209 201.45 62.9572 201.606 62.8025C201.763 62.6466 202.015 62.6466 202.17 62.8025L204.44 65.0689C204.597 65.2248 204.597 65.4767 204.44 65.6314C204.362 65.7093 204.26 65.7477 204.158 65.7477H204.159Z" fill="white"/>
<path d="M201.889 65.7477C201.787 65.7477 201.684 65.7093 201.606 65.6314C201.45 65.4755 201.45 65.2236 201.606 65.0689L203.877 62.8025C204.033 62.6466 204.286 62.6466 204.44 62.8025C204.597 62.9584 204.597 63.2102 204.44 63.3649L202.17 65.6314C202.092 65.7093 201.99 65.7477 201.888 65.7477H201.889Z" fill="white"/>
<path d="M144.261 17.4419C144.193 17.4419 144.124 17.4287 144.057 17.4011C128.292 10.8427 110.108 8.84002 91.4686 11.6114C91.179 11.6533 90.9075 11.4543 90.8643 11.1653C90.821 10.8751 91.0216 10.6052 91.3112 10.5621C110.142 7.76314 128.522 9.78858 144.466 16.4225C144.737 16.5353 144.864 16.8459 144.751 17.1169C144.666 17.3207 144.469 17.4431 144.26 17.4431L144.261 17.4419Z" fill="#404245"/>
<path d="M151.854 15.1773C151.771 15.1773 151.687 15.1581 151.609 15.1174C150.255 14.4134 148.851 13.7323 147.435 13.0943C127.605 4.15189 103.609 2.45983 79.8668 8.3323C79.5797 8.40185 79.2937 8.22917 79.2228 7.94495C79.152 7.66075 79.3262 7.37294 79.6109 7.30219C103.583 1.37335 127.826 3.08701 147.873 12.1278C149.307 12.7741 150.73 13.4637 152.1 14.1772C152.361 14.3127 152.462 14.6329 152.326 14.8931C152.231 15.0742 152.046 15.1785 151.854 15.1785V15.1773Z" fill="#404245"/>
<path d="M168.598 33.9376C168.387 33.9376 168.21 33.7721 168.201 33.5587C168.19 33.3392 168.359 33.1521 168.579 33.1425L170.494 33.0502C170.714 33.0406 170.901 33.2085 170.911 33.4279C170.922 33.6474 170.752 33.8345 170.533 33.8441L168.618 33.9364C168.612 33.9364 168.604 33.9364 168.598 33.9364V33.9376Z" fill="#404245"/>
<path d="M175.3 33.6153C175.089 33.6153 174.912 33.4498 174.903 33.2364C174.892 33.0169 175.061 32.8299 175.281 32.8203L177.196 32.7279C177.411 32.7183 177.604 32.8862 177.613 33.1057C177.624 33.3251 177.455 33.5122 177.235 33.5218L175.32 33.6141C175.314 33.6141 175.306 33.6141 175.3 33.6141V33.6153Z" fill="#404245"/>
<path d="M173.139 38.0309C172.929 38.0309 172.752 37.8666 172.742 37.6544L172.638 35.7428C172.626 35.5234 172.794 35.3363 173.014 35.3243C173.238 35.3195 173.423 35.4814 173.434 35.6997L173.537 37.6112C173.549 37.8306 173.381 38.0177 173.161 38.0297C173.154 38.0297 173.146 38.0297 173.139 38.0297V38.0309Z" fill="#404245"/>
<path d="M172.778 31.3416C172.568 31.3416 172.392 31.1773 172.38 30.965L172.277 29.0535C172.265 28.8341 172.433 28.647 172.653 28.635C172.87 28.6278 173.06 28.7909 173.072 29.0103L173.176 30.9219C173.188 31.1413 173.019 31.3284 172.8 31.3404C172.792 31.3404 172.785 31.3404 172.778 31.3404V31.3416Z" fill="#404245"/>
<path d="M155.439 194.848C155.367 194.848 155.295 194.828 155.23 194.788L153.867 193.946C153.679 193.831 153.622 193.585 153.737 193.398C153.852 193.211 154.099 193.153 154.286 193.268L155.65 194.11C155.837 194.225 155.895 194.471 155.779 194.658C155.704 194.78 155.574 194.846 155.441 194.846L155.439 194.848Z" fill="#404245"/>
<path d="M160.21 197.793C160.138 197.793 160.066 197.774 160.001 197.733L158.637 196.891C158.45 196.776 158.392 196.53 158.508 196.343C158.623 196.156 158.869 196.098 159.057 196.214L160.42 197.055C160.608 197.171 160.665 197.416 160.55 197.603C160.474 197.726 160.345 197.792 160.211 197.792L160.21 197.793Z" fill="#404245"/>
<path d="M155.263 198.973C155.192 198.973 155.12 198.954 155.055 198.914C154.868 198.8 154.808 198.554 154.923 198.367L155.759 197.001C155.874 196.813 156.12 196.754 156.307 196.869C156.494 196.983 156.554 197.229 156.439 197.416L155.603 198.782C155.527 198.904 155.396 198.973 155.263 198.973Z" fill="#404245"/>
<path d="M158.189 194.191C158.118 194.191 158.046 194.172 157.981 194.133C157.793 194.019 157.733 193.773 157.849 193.586L158.685 192.22C158.8 192.033 159.045 191.973 159.233 192.088C159.42 192.202 159.48 192.448 159.365 192.635L158.529 194.001C158.453 194.123 158.322 194.191 158.189 194.191Z" fill="#404245"/>
<path d="M52.2667 27.6308C52.2271 27.6308 52.1874 27.6248 52.1478 27.6128L50.6617 27.1488C50.4514 27.0828 50.3349 26.8598 50.3998 26.6499C50.4658 26.44 50.6881 26.3225 50.8996 26.3885L52.3857 26.8526C52.5959 26.9185 52.7125 27.1416 52.6476 27.3514C52.5935 27.5217 52.4373 27.6308 52.2667 27.6308Z" fill="#404245"/>
<path d="M47.0636 26.0049C47.024 26.0049 46.9843 25.9989 46.9447 25.9869L45.4586 25.5228C45.2483 25.4568 45.1318 25.2338 45.1966 25.0239C45.2627 24.8141 45.485 24.6965 45.6964 24.7625L47.1825 25.2266C47.3928 25.2925 47.5093 25.5156 47.4445 25.7254C47.3904 25.8957 47.2342 26.0049 47.0636 26.0049Z" fill="#404245"/>
<path d="M49.4933 24.7263C49.4548 24.7263 49.4152 24.7203 49.3767 24.7095C49.1665 24.6448 49.0476 24.4229 49.1124 24.2119L49.569 22.7249C49.6338 22.515 49.8561 22.3963 50.0675 22.461C50.2778 22.5258 50.3967 22.7477 50.3319 22.9587L49.8753 24.4457C49.8225 24.6172 49.6651 24.7275 49.4945 24.7275L49.4933 24.7263Z" fill="#404245"/>
<path d="M47.8966 29.9314C47.8582 29.9314 47.8185 29.9254 47.7801 29.9146C47.5698 29.8499 47.4509 29.628 47.5158 29.417L47.9723 27.9299C48.0372 27.7201 48.2594 27.6014 48.4709 27.6661C48.6811 27.7309 48.8001 27.9527 48.7352 28.1638L48.2786 29.6508C48.2258 29.8223 48.0684 29.9326 47.8978 29.9326L47.8966 29.9314Z" fill="#404245"/>
<path d="M74.0855 11.5853C73.6494 11.5853 73.2265 11.4486 72.8673 11.1883C72.418 10.8622 72.1236 10.3813 72.0371 9.83445C71.8593 8.70481 72.6342 7.63992 73.7659 7.46244C74.8964 7.28256 75.9645 8.05844 76.1423 9.18809C76.3213 10.3177 75.5452 11.3826 74.4135 11.5601C74.3041 11.5769 74.1936 11.5865 74.0855 11.5865V11.5853ZM74.0903 8.23113C74.0242 8.23113 73.9569 8.23592 73.8897 8.24671C73.1929 8.35704 72.7147 9.013 72.824 9.70974C72.8769 10.0467 73.0595 10.3429 73.3358 10.5444C73.6121 10.7446 73.9509 10.8262 74.2897 10.7734C74.9877 10.6631 75.4659 10.0071 75.3554 9.3104C75.2556 8.68082 74.709 8.23113 74.0903 8.23113Z" fill="#404245"/>
</g>
<defs>
<clipPath id="clip0_8811_17233">
<rect width="220" height="220" fill="white" transform="translate(0.5)"/>
</clipPath>
</defs>
</svg>
